<svg width="30" height="30" viewBox="0 0 30 30" fill="none" xmlns="http://www.w3.org/2000/svg">
<path d="M5 14.3153V21.0002C5 22.4003 5 23.1009 5.27248 23.6357C5.51217 24.1061 5.89434 24.4882 6.36475 24.7279C6.899 25.0001 7.59874 25.0001 8.99614 25.0001H21.0039C22.4013 25.0001 23.1 25.0001 23.6342 24.7279C24.1046 24.4882 24.4881 24.1061 24.7278 23.6357C25 23.1014 25 22.402 25 21.0046V14.3153C25 13.6474 24.9994 13.3132 24.9182 13.0024C24.8462 12.727 24.7281 12.4663 24.5682 12.2308C24.3878 11.965 24.1369 11.7446 23.6343 11.3048L17.6343 6.05478C16.701 5.23818 16.2344 4.83008 15.7092 4.67478C15.2465 4.53793 14.7533 4.53793 14.2905 4.67478C13.7658 4.82996 13.2998 5.23767 12.368 6.05305L6.36597 11.3048C5.8633 11.7446 5.61255 11.965 5.43213 12.2308C5.27224 12.4663 5.15319 12.727 5.08121 13.0024C5 13.3132 5 13.6474 5 14.3153Z" stroke="black" stroke-width="2" stroke-linecap="round" stroke-linejoin="round"/>
</svg>
