<?xml version="1.0" encoding="UTF-8"?>
<!-- Generated by Pixelmator Pro 4.0 -->
<svg width="800" height="800" viewBox="0 0 800 800" xmlns="http://www.w3.org/2000/svg">
    <linearGradient id="linearGradient1" x1="133.333328" y1="400.004829" x2="666.666702" y2="400.004829" gradientUnits="userSpaceOnUse">
        <stop offset="0" stop-color="#2fa487" stop-opacity="1"/>
        <stop offset="1" stop-color="#2fa487" stop-opacity="1"/>
    </linearGradient>
    <path id="Path" fill="url(#linearGradient1)" fill-rule="evenodd" stroke="none" d="M 376.366669 723.533325 L 400 700 L 376.366669 723.533325 Z M 400 700 L 423.600006 723.533325 C 417.345062 729.812988 408.84668 733.343018 399.983337 733.343018 C 391.119995 733.343018 382.621613 729.812988 376.366669 723.533325 L 376.166656 723.299988 L 375.599976 722.733276 L 373.533356 720.633301 C 361.782959 708.529114 350.225952 696.238647 338.866669 683.766663 C 310.346649 652.515747 283.037628 620.180847 257 586.833313 C 227.266663 548.5 196.866669 505.166656 173.766663 462.366669 C 151.166656 420.400024 133.333328 374.93335 133.333328 333.333344 C 133.333328 182.033325 253.066666 66.666687 400 66.666687 C 546.93335 66.666687 666.666687 182.033325 666.666687 333.333344 C 666.666687 374.93335 648.833313 420.400024 626.233337 462.333344 C 603.133301 505.200012 572.766663 548.5 543 586.833313 C 506.579346 633.487793 467.678833 678.1521 426.466644 720.633301 L 424.400024 722.733276 L 423.833344 723.299988 L 423.633331 723.5 L 400 700 Z M 400 433.333344 C 455.228485 433.333344 500 388.561829 500 333.333344 C 500 278.104858 455.228485 233.333313 400 233.333313 C 344.771515 233.333313 300 278.104858 300 333.333344 C 300 388.561829 344.771515 433.333344 400 433.333344 Z"/>
</svg>
